<svg width="13" height="15" viewBox="0 0 13 15" fill="none" xmlns="http://www.w3.org/2000/svg">
<path d="M3.88766 14.06C3.54459 14.06 3.25116 13.9246 3.00736 13.6537C2.76356 13.3829 2.64141 13.0582 2.64089 12.6795V10.6387H1.24599C0.903443 10.6387 0.610268 10.5033 0.366469 10.2325C0.122671 9.9616 0.000514343 9.63658 0 9.25739V6.03282C0 5.54813 0.148388 5.14214 0.445163 4.81484C0.741939 4.48639 1.10789 4.32217 1.54303 4.32217H11.4539C11.8911 4.32217 12.2576 4.48639 12.5533 4.81484C12.849 5.14328 12.9969 5.54927 12.9969 6.03282V9.25739C12.9969 9.63715 12.875 9.96217 12.6312 10.2325C12.3874 10.5027 12.094 10.6382 11.7509 10.6387H10.356V12.6787C10.356 13.0584 10.2339 13.3835 9.98956 13.6537C9.74525 13.924 9.45207 14.0595 9.11004 14.06H3.88766ZM1.24599 9.78341H2.64089C2.66095 9.42246 2.79005 9.11283 3.02819 8.85453C3.26633 8.59679 3.55282 8.46792 3.88766 8.46792H9.11004C9.44436 8.46792 9.73059 8.59708 9.96873 8.85538C10.2069 9.11312 10.336 9.42246 10.356 9.78341H11.7509C11.8893 9.78341 12.003 9.73408 12.0919 9.63544C12.1809 9.53679 12.2254 9.41077 12.2254 9.25739V6.03282C12.2254 5.79105 12.1516 5.58805 12.004 5.42383C11.8564 5.25961 11.673 5.17749 11.4539 5.17749H1.54303C1.32443 5.17749 1.14133 5.25961 0.99371 5.42383C0.846093 5.58805 0.772028 5.79133 0.771514 6.03367V9.25739C0.771514 9.41077 0.816005 9.53679 0.904986 9.63544C0.993967 9.73408 1.10764 9.78341 1.24599 9.78341ZM9.58452 4.32303V2.28223C9.58452 2.12827 9.54003 2.00225 9.45105 1.90417C9.36206 1.80553 9.24839 1.7562 9.11004 1.7562H3.88689C3.74853 1.7562 3.63486 1.80553 3.54588 1.90417C3.4569 2.00282 3.41241 2.12884 3.41241 2.28223V4.32217H2.64089V2.28223C2.64089 1.90246 2.76305 1.57716 3.00736 1.3063C3.25116 1.03545 3.54433 0.900024 3.88689 0.900024H9.11004C9.45259 0.900024 9.74576 1.03545 9.98956 1.3063C10.2339 1.57716 10.356 1.90218 10.356 2.28137V4.32217L9.58452 4.32303ZM10.8313 7.31666C11.0499 7.31666 11.233 7.23455 11.3806 7.07032C11.5282 6.9061 11.6023 6.70311 11.6028 6.46133C11.6033 6.21956 11.5292 6.01628 11.3806 5.85149C11.232 5.6867 11.0489 5.60459 10.8313 5.60516C10.6137 5.60573 10.4304 5.68784 10.2812 5.85149C10.132 6.01514 10.0582 6.21842 10.0598 6.46133C10.0613 6.70425 10.1351 6.90724 10.2812 7.07032C10.4273 7.23341 10.6106 7.31552 10.8313 7.31666ZM9.58452 12.6778V9.84927C9.58452 9.69531 9.54003 9.56901 9.45105 9.47036C9.36206 9.37171 9.24839 9.32239 9.11004 9.32239H3.88689C3.74853 9.32239 3.63486 9.37171 3.54588 9.47036C3.4569 9.56958 3.41241 9.69588 3.41241 9.84927V12.6787C3.41241 12.8321 3.4569 12.9581 3.54588 13.0567C3.63486 13.1554 3.74879 13.2047 3.88766 13.2047H9.11004C9.24839 13.2047 9.36206 13.1554 9.45105 13.0567C9.54003 12.9581 9.58452 12.8318 9.58452 12.6778Z" fill="white"/>
</svg>
